<svg xmlns="http://www.w3.org/2000/svg" width="262.075" height="63.558" viewBox="0 0 262.075 63.558"><defs><style>.a{fill:#072d2c;}.b{fill:#d37453;}</style></defs><g transform="translate(-55.736 -139.81)"><path class="a" d="M73.6,157.971c-3.311,0-11.429.39-17.859,0v2.468l1.624.325c2.013.39,2.4,1.364,2.4,8.443v21.171c0,7.794-.389,8.833-2.4,9.222l-1.624.325v2.468c6.69-.325,14.872,0,19.613,0,15.392,0,24.614-9.352,24.614-22.081,0-14.287-10.716-22.341-26.368-22.341m3.313,41.954c-3.507,0-4.806-1.688-4.806-6.819v-32.8c9.287.78,14.872,9.742,14.872,22.991,0,11.364-4.091,16.625-10.066,16.625"/><path class="a" d="M162.92,169.142a73.341,73.341,0,0,1-11.949,0v2.468l1.039.324c2.013.585,2.857,2.014,1.3,7.014l-4.286,13.963-5.261-15.781c-1.235-3.767-1.169-4.546.584-5.131l1.169-.389v-2.468a173.3,173.3,0,0,1-18.379,0v2.468l.845.324c1.1.39,1.882,1.754,3.377,5.585l.065.13-4.937,15.132L120.9,177.13c-1.3-3.572-1.3-4.481.26-5l1.559-.519v-2.468c-6.819.325-13.7.325-20.068,0v2.468l1.105.26c1.559.324,2.338,1.493,4.026,5.649l10,24.874a54.62,54.62,0,0,1,7.989,0l7.079-20.977,7.922,20.977a47.752,47.752,0,0,1,7.469,0l7.988-22.795c1.948-5.456,3.506-6.949,5.65-7.664l1.039-.324Z"/><path class="a" d="M184.794,194.081c-5.586,0-9.872-3.9-11.105-10H193.5a25.336,25.336,0,0,0,.195-2.923c0-6.559-4.546-12.989-13.638-12.989a17.367,17.367,0,0,0-17.47,17.73c0,10.326,7.144,17.47,16.5,17.47,7.275,0,12.015-4.157,15.717-11.69l-1.039-.844a13.142,13.142,0,0,1-8.962,3.247m-11.5-13.768c0-5.91,2.013-9.027,5.2-9.027,2.728,0,4.546,3.506,5.131,9.417l-10.262.974a9.732,9.732,0,0,1-.064-1.364"/><path class="a" d="M278.41,194.34c-6.1,0-11.819-4.481-11.819-14.742,0-5.715,2.338-8.572,4.74-8.572,3.312,0,5.391,4.286,7.143,10.585l1.235.52c3.247-.195,5.715-1.753,5.715-5.391,0-4.351-4.936-8.572-12.6-8.572-8.573,0-16.95,6.494-16.95,17.859,0,10.327,7.014,17.34,16.431,17.34,6.1,0,11.3-3.571,14.222-10.521l-.845-.844a13.9,13.9,0,0,1-7.273,2.338"/><path class="a" d="M300.082,174.4a3.325,3.325,0,0,1,3.507-3.442c3.766,0,6.559,3.052,10.131,9.092h1.688c-.26-2.793-.454-5.455-.454-8.572a18.1,18.1,0,0,0-11.04-3.312c-8.7,0-14.028,4.675-14.028,10.91,0,11.365,17.859,10.261,17.859,17.925,0,1.883-1.233,3.571-4.026,3.571-3.443,0-7.209-1.688-11.82-9.417h-1.688c.064,2.858.13,6.69,0,9.287a29.716,29.716,0,0,0,12.988,2.923c8.248,0,14.612-4.156,14.612-11.365,0-11.43-17.729-9.677-17.729-17.6"/><path class="b" d="M253.259,145.828a6.018,6.018,0,1,1-6.018-6.018,6.018,6.018,0,0,1,6.018,6.018"/><path class="a" d="M250.712,163.264c0-.832.707-1.89,1.535-1.808,1.474.145,5.87.793,5.87.793l.427-2.781c-13.311-1.941-19.074-8.043-22.8-11.555a.084.084,0,0,0-.146.062l.157,3.711s.886,1.018,1.2,1.344a5.988,5.988,0,0,1,1.93,4.55v31.061l.025-.06v8.187c-.174,3.014-.724,3.544-2.456,3.872l-.972.047-.973-.047c-2.4-.454-2.417-.863-2.418-8.16,0,.469-.028-1.7-.018-1.7V152.616l.018,0v-5.507l-15.847,5.43.3,2.379,2.174-.506a1.461,1.461,0,0,1,1.551,1.458V185.5l.015.008V192c0,7.339-.13,8.183-2.532,8.638l-1.257.089-1.256-.089c-1.629-.308-2.213-.8-2.42-3.362V159.116l.018,0v-5.507l-19.559,6.805.3,2.379s4.093-.99,5.591-1.257c.966-.171,1.845-.008,1.845.834V192c0,7.339-.13,8.183-2.534,8.638l-1.494.26v2.468H254.7V200.9l-1.493-.26c-2.4-.454-2.533-1.3-2.533-8.622l.036-.016Z"/></g></svg>